# xmcd
#
# Track frame offsets:
#	150
#	17338
#	38766
#	60821
#	80625
#	100256
#	113665
#	134471
#	149350
#	167832
#	179373
#	194234
#
# Disc length: 2956 seconds
#
# Revision: 1
# Processed by: cddbd v1.5.2PL0 Copyright (c) Steve Scherf et al.
# Submitted via: audiograbber 1.83.01
#
DISCID=9f0b8a0c
DTITLE=Stephan Gatti - Starting A New Live
DYEAR=2004
DGENRE=Singer Songwriter
TTITLE0=Starting A New Life
TTITLE1=A New Heart
TTITLE2=I´m Sober Now
TTITLE3=Dead Man´s Song
TTITLE4=Average
TTITLE5=She Needs A Man Like Me
TTITLE6=Wrong
TTITLE7=Monkey
TTITLE8=Easy
TTITLE9=Standing At The Crossroad
TTITLE10=Skull And Crossbone On The Bottle
TTITLE11=Searching For A Soul
EXTD=
EXTT0=
EXTT1=
EXTT2=
EXTT3=
EXTT4=
EXTT5=
EXTT6=
EXTT7=
EXTT8=
EXTT9=
EXTT10=
EXTT11=
PLAYORDER=
